# xmcd CD database file
#
# Track frame offsets:
#	150
#	6099
#	28206
#	52565
#	78913
#	101034
#	132420
#	170934
#	195338
#	228534
#	256404
#	286538
#	299036
#	321750
#
# Disc length: 4328 seconds
#
# Revision: 0
# Processed by: cddbd v1.5.2PL0 Copyright (c) Steve Scherf et al.
# Submitted via: CDex 1.51
#
DISCID=c110e60e
DTITLE=Bill Evans - From Bill Evans With Love
DYEAR=2011
DGENRE=Jazz
TTITLE0=Waltz for Debby
TTITLE1=Someday My Prince Will Come
TTITLE2=Autumn Leaves
TTITLE3=Nardis
TTITLE4=My Foolish Heart
TTITLE5=Waltz for Debby - live
TTITLE6=Alice in Wonderland - live
TTITLE7=Blue in Green
TTITLE8=You and the Night and the Music
TTITLE9=Israel
TTITLE10=Peace Piece
TTITLE11=Monicas Vals (Waltz for Debby) vocal:Monica Zetterlund
TTITLE12=Polka Dots and Moonbeams
TTITLE13=Epilogue
EXTD=YEAR: 2011
EXTT0=
EXTT1=
EXTT2=
EXTT3=
EXTT4=
EXTT5=
EXTT6=
EXTT7=
EXTT8=
EXTT9=
EXTT10=
EXTT11=
EXTT12=
EXTT13=
PLAYORDER=
